<svg width="196" height="47" viewBox="0 0 196 47" fill="none" xmlns="http://www.w3.org/2000/svg">
<path d="M6.05114 40.2557C5.0071 40.2557 4.08381 40.0852 3.28125 39.7443C2.4858 39.3963 1.8608 38.8707 1.40625 38.1676C0.951705 37.4645 0.724432 36.5696 0.724432 35.483C0.724432 34.5881 0.877131 33.8246 1.18253 33.1925C1.48793 32.5533 1.91406 32.0312 2.46094 31.6264C3.00781 31.2216 3.64347 30.9126 4.3679 30.6996C5.09943 30.4865 5.88778 30.348 6.73295 30.2841C7.64915 30.2131 8.38423 30.1278 8.93821 30.0284C9.49929 29.9219 9.90412 29.7763 10.1527 29.5916C10.4013 29.3999 10.5256 29.1477 10.5256 28.8352V28.7926C10.5256 28.3665 10.3622 28.0398 10.0355 27.8125C9.70881 27.5852 9.28977 27.4716 8.77841 27.4716C8.21733 27.4716 7.75923 27.5959 7.40412 27.8445C7.05611 28.0859 6.84659 28.4588 6.77557 28.9631H1.36364C1.43466 27.9687 1.75071 27.0526 2.31179 26.2145C2.87997 25.3693 3.70739 24.6946 4.79403 24.1903C5.88068 23.679 7.23722 23.4233 8.86364 23.4233C10.0355 23.4233 11.0866 23.5618 12.017 23.8388C12.9474 24.1087 13.7393 24.4886 14.3928 24.9787C15.0462 25.4616 15.5433 26.0298 15.8842 26.6832C16.2322 27.3295 16.4062 28.0327 16.4062 28.7926V40H10.9091V37.6989H10.7812C10.4545 38.3097 10.0568 38.8033 9.58807 39.1797C9.12642 39.5561 8.5973 39.8295 8.00071 40C7.41122 40.1705 6.76136 40.2557 6.05114 40.2557ZM7.96875 36.5483C8.41619 36.5483 8.83523 36.456 9.22585 36.2713C9.62358 36.0866 9.94673 35.8203 10.1953 35.4723C10.4439 35.1243 10.5682 34.7017 10.5682 34.2045V32.8409C10.4119 32.9048 10.245 32.9652 10.0675 33.022C9.89702 33.0788 9.71236 33.1321 9.51349 33.1818C9.32173 33.2315 9.11577 33.2777 8.8956 33.3203C8.68253 33.3629 8.45881 33.402 8.22443 33.4375C7.76989 33.5085 7.39702 33.6257 7.10582 33.7891C6.82173 33.9453 6.60866 34.1406 6.46662 34.375C6.33168 34.6023 6.2642 34.858 6.2642 35.142C6.2642 35.5966 6.42401 35.9446 6.74361 36.1861C7.06321 36.4276 7.47159 36.5483 7.96875 36.5483ZM27.0996 46.4773C25.459 46.4773 24.0527 46.2429 22.8809 45.7741C21.7161 45.3125 20.8105 44.6733 20.1642 43.8565C19.525 43.0469 19.1664 42.1165 19.0882 41.0653H24.7559C24.8127 41.4134 24.9547 41.6939 25.182 41.907C25.4093 42.12 25.7005 42.2727 26.0556 42.3651C26.4178 42.4645 26.8226 42.5142 27.2701 42.5142C28.03 42.5142 28.6586 42.3295 29.1557 41.9602C29.66 41.5909 29.9121 40.9233 29.9121 39.9574V37.1875H29.7417C29.5286 37.7415 29.2019 38.2138 28.7615 38.6044C28.3212 38.9879 27.7921 39.2827 27.1742 39.4886C26.5563 39.6875 25.878 39.7869 25.1394 39.7869C23.9746 39.7869 22.9022 39.517 21.9221 38.9773C20.949 38.4375 20.1678 37.5817 19.5783 36.4098C18.9959 35.2379 18.7047 33.7074 18.7047 31.8182C18.7047 29.8437 19.0101 28.2386 19.6209 27.0028C20.2388 25.767 21.0343 24.8615 22.0073 24.2862C22.9874 23.7109 24.0172 23.4233 25.0968 23.4233C25.9064 23.4233 26.6167 23.5653 27.2275 23.8494C27.8382 24.1264 28.3496 24.4993 28.7615 24.968C29.1735 25.4297 29.486 25.9375 29.699 26.4915H29.8269V23.6364H35.7076V39.9574C35.7076 41.3423 35.3489 42.5178 34.6316 43.4837C33.9213 44.4567 32.9199 45.1989 31.6273 45.7102C30.3347 46.2216 28.8255 46.4773 27.0996 46.4773ZM27.3127 35.6108C27.8525 35.6108 28.3141 35.4616 28.6976 35.1634C29.0882 34.858 29.3865 34.4247 29.5925 33.8636C29.8056 33.2955 29.9121 32.6136 29.9121 31.8182C29.9121 31.0085 29.8056 30.3161 29.5925 29.7408C29.3865 29.1584 29.0882 28.7145 28.6976 28.4091C28.3141 28.0966 27.8525 27.9403 27.3127 27.9403C26.7729 27.9403 26.3113 28.0966 25.9277 28.4091C25.5513 28.7145 25.2601 29.1584 25.0542 29.7408C24.8553 30.3161 24.7559 31.0085 24.7559 31.8182C24.7559 32.6278 24.8553 33.3168 25.0542 33.8849C25.2601 34.446 25.5513 34.8757 25.9277 35.174C26.3113 35.4652 26.7729 35.6108 27.3127 35.6108ZM38.6985 40V23.6364H44.4087V26.7472H44.5792C44.8775 25.5966 45.3498 24.755 45.9961 24.2223C46.6495 23.6896 47.413 23.4233 48.2866 23.4233C48.5423 23.4233 48.7944 23.4446 49.043 23.4872C49.2987 23.5227 49.5437 23.576 49.7781 23.647V28.6648C49.4869 28.5653 49.1282 28.4908 48.7021 28.4411C48.2759 28.3913 47.9102 28.3665 47.6048 28.3665C47.0295 28.3665 46.511 28.4979 46.0494 28.7607C45.5948 29.0163 45.2362 29.3786 44.9734 29.8473C44.7106 30.3089 44.5792 30.8523 44.5792 31.4773V40H38.6985ZM51.7063 40V23.6364H57.587V40H51.7063ZM54.6467 21.9318C53.8512 21.9318 53.1694 21.669 52.6012 21.1435C52.033 20.6179 51.7489 19.9858 51.7489 19.2472C51.7489 18.5085 52.033 17.8764 52.6012 17.3509C53.1694 16.8253 53.8512 16.5625 54.6467 16.5625C55.4492 16.5625 56.131 16.8253 56.6921 17.3509C57.2603 17.8764 57.5444 18.5085 57.5444 19.2472C57.5444 19.9858 57.2603 20.6179 56.6921 21.1435C56.131 21.669 55.4492 21.9318 54.6467 21.9318Z" fill="#3AAB83"/>
<path d="M61.2331 46.1364V23.6364H64.3439V26.2891H64.6103C64.7949 25.9482 65.0613 25.554 65.4093 25.1065C65.7573 24.6591 66.2402 24.2685 66.8581 23.9347C67.476 23.5938 68.2928 23.4233 69.3084 23.4233C70.6294 23.4233 71.8084 23.7571 72.8453 24.4247C73.8823 25.0923 74.6955 26.0547 75.285 27.3118C75.8816 28.5689 76.1799 30.0817 76.1799 31.8501C76.1799 33.6186 75.8851 35.1349 75.2956 36.3991C74.7061 37.6562 73.8965 38.6257 72.8667 39.3075C71.8368 39.9822 70.6614 40.3196 69.3404 40.3196C68.3461 40.3196 67.5328 40.1527 66.9007 39.8189C66.2757 39.4851 65.7857 39.0945 65.4306 38.647C65.0755 38.1996 64.802 37.8018 64.6103 37.4538H64.4185V46.1364H61.2331ZM64.3546 31.8182C64.3546 32.9687 64.5215 33.9773 64.8553 34.8438C65.1891 35.7102 65.6721 36.3885 66.3042 36.8786C66.9363 37.3615 67.7104 37.603 68.6266 37.603C69.5783 37.603 70.3738 37.3509 71.013 36.8466C71.6522 36.3352 72.1351 35.6428 72.4618 34.7692C72.7956 33.8956 72.9625 32.9119 72.9625 31.8182C72.9625 30.7386 72.7992 29.7692 72.4725 28.9098C72.1529 28.0504 71.6699 27.3722 71.0236 26.875C70.3844 26.3778 69.5854 26.1293 68.6266 26.1293C67.7033 26.1293 66.9221 26.3672 66.2828 26.843C65.6507 27.3189 65.1713 27.983 64.8446 28.8352C64.5179 29.6875 64.3546 30.6818 64.3546 31.8182ZM79.7488 40V23.6364H82.8276V26.2358H82.998C83.2963 25.3551 83.8219 24.6626 84.5748 24.1584C85.3347 23.647 86.1941 23.3913 87.1529 23.3913C87.3517 23.3913 87.5861 23.3984 87.856 23.4126C88.133 23.4268 88.3496 23.4446 88.5059 23.4659V26.5128C88.378 26.4773 88.1507 26.4382 87.824 26.3956C87.4973 26.3459 87.1706 26.321 86.8439 26.321C86.0911 26.321 85.4199 26.4808 84.8304 26.8004C84.248 27.1129 83.7864 27.5497 83.4455 28.1108C83.1046 28.6648 82.9341 29.2969 82.9341 30.0071V40H79.7488ZM97.729 40.3303C96.1168 40.3303 94.7283 39.9858 93.5636 39.2969C92.4059 38.6009 91.511 37.6243 90.8789 36.3672C90.2539 35.103 89.9414 33.6222 89.9414 31.9247C89.9414 30.2486 90.2539 28.7713 90.8789 27.4929C91.511 26.2145 92.3917 25.2166 93.521 24.4993C94.6573 23.782 95.9854 23.4233 97.5053 23.4233C98.4286 23.4233 99.3235 23.576 100.19 23.8814C101.056 24.1868 101.834 24.6662 102.523 25.3196C103.212 25.973 103.755 26.8217 104.153 27.8658C104.551 28.9027 104.75 30.1634 104.75 31.6477V32.777H91.7418V30.3906H101.628C101.628 29.5526 101.458 28.8104 101.117 28.1641C100.776 27.5107 100.297 26.9957 99.6786 26.6193C99.0678 26.2429 98.3505 26.0547 97.5266 26.0547C96.6317 26.0547 95.8505 26.2749 95.1829 26.7152C94.5224 27.1484 94.011 27.7166 93.6488 28.4197C93.2937 29.1158 93.1161 29.8722 93.1161 30.6889V32.5533C93.1161 33.647 93.3079 34.5774 93.6914 35.3445C94.082 36.1115 94.6254 36.6974 95.3214 37.1023C96.0174 37.5 96.8306 37.6989 97.761 37.6989C98.3647 37.6989 98.9151 37.6136 99.4123 37.4432C99.9094 37.2656 100.339 37.0028 100.701 36.6548C101.064 36.3068 101.341 35.8771 101.532 35.3658L104.547 35.9091C104.306 36.7969 103.873 37.5746 103.248 38.2422C102.63 38.9027 101.852 39.4176 100.914 39.7869C99.984 40.1491 98.9222 40.3303 97.729 40.3303ZM115.177 40.3303C113.593 40.3303 112.229 39.9716 111.086 39.2543C109.949 38.5298 109.076 37.532 108.465 36.2607C107.854 34.9893 107.549 33.5334 107.549 31.8928C107.549 30.2308 107.861 28.7642 108.486 27.4929C109.111 26.2145 109.992 25.2166 111.128 24.4993C112.265 23.782 113.604 23.4233 115.145 23.4233C116.388 23.4233 117.496 23.6541 118.469 24.1158C119.442 24.5703 120.226 25.2095 120.823 26.0334C121.427 26.8572 121.785 27.8196 121.899 28.9205H118.799C118.628 28.1534 118.238 27.4929 117.627 26.9389C117.023 26.3849 116.214 26.108 115.198 26.108C114.31 26.108 113.532 26.3423 112.865 26.8111C112.204 27.2727 111.689 27.9332 111.32 28.7926C110.951 29.6449 110.766 30.6534 110.766 31.8182C110.766 33.0114 110.947 34.0412 111.309 34.9077C111.672 35.7741 112.183 36.4453 112.844 36.9212C113.511 37.397 114.296 37.6349 115.198 37.6349C115.802 37.6349 116.349 37.5249 116.839 37.3047C117.336 37.0774 117.751 36.7543 118.085 36.3352C118.426 35.9162 118.664 35.4119 118.799 34.8224H121.899C121.785 35.8807 121.441 36.8253 120.866 37.6562C120.29 38.4872 119.52 39.1406 118.554 39.6165C117.595 40.0923 116.469 40.3303 115.177 40.3303ZM125.305 40V23.6364H128.491V40H125.305ZM126.914 21.1115C126.36 21.1115 125.884 20.9268 125.487 20.5575C125.096 20.1811 124.901 19.7337 124.901 19.2152C124.901 18.6896 125.096 18.2422 125.487 17.8729C125.884 17.4964 126.36 17.3082 126.914 17.3082C127.468 17.3082 127.94 17.4964 128.331 17.8729C128.729 18.2422 128.928 18.6896 128.928 19.2152C128.928 19.7337 128.729 20.1811 128.331 20.5575C127.94 20.9268 127.468 21.1115 126.914 21.1115ZM145.038 27.6314L142.151 28.1428C142.03 27.7734 141.839 27.4219 141.576 27.0881C141.32 26.7543 140.972 26.4808 140.532 26.2678C140.091 26.0547 139.541 25.9482 138.881 25.9482C137.979 25.9482 137.226 26.1506 136.622 26.5554C136.018 26.9531 135.716 27.468 135.716 28.1001C135.716 28.647 135.919 29.0874 136.324 29.4212C136.729 29.755 137.382 30.0284 138.284 30.2415L140.883 30.8381C142.389 31.1861 143.511 31.7223 144.25 32.4467C144.988 33.1712 145.358 34.1122 145.358 35.2699C145.358 36.25 145.074 37.1236 144.506 37.8906C143.944 38.6506 143.16 39.2472 142.151 39.6804C141.15 40.1136 139.988 40.3303 138.667 40.3303C136.835 40.3303 135.34 39.9396 134.182 39.1584C133.025 38.37 132.314 37.2514 132.052 35.8026L135.131 35.3338C135.322 36.1364 135.716 36.7436 136.313 37.1555C136.91 37.5604 137.687 37.7628 138.646 37.7628C139.69 37.7628 140.525 37.5462 141.15 37.1129C141.775 36.6726 142.087 36.1364 142.087 35.5043C142.087 34.9929 141.895 34.5632 141.512 34.2152C141.135 33.8672 140.557 33.6044 139.775 33.4268L137.006 32.8196C135.479 32.4716 134.349 31.9176 133.618 31.1577C132.893 30.3977 132.531 29.4354 132.531 28.2706C132.531 27.3047 132.801 26.4595 133.341 25.7351C133.881 25.0107 134.626 24.446 135.578 24.0412C136.53 23.6293 137.62 23.4233 138.849 23.4233C140.617 23.4233 142.009 23.8068 143.025 24.5739C144.04 25.3338 144.711 26.353 145.038 27.6314ZM148.86 40V23.6364H152.045V40H148.86ZM150.469 21.1115C149.915 21.1115 149.439 20.9268 149.041 20.5575C148.651 20.1811 148.455 19.7337 148.455 19.2152C148.455 18.6896 148.651 18.2422 149.041 17.8729C149.439 17.4964 149.915 17.3082 150.469 17.3082C151.023 17.3082 151.495 17.4964 151.886 17.8729C152.283 18.2422 152.482 18.6896 152.482 19.2152C152.482 19.7337 152.283 20.1811 151.886 20.5575C151.495 20.9268 151.023 21.1115 150.469 21.1115ZM183.335 30.2841V40H180.149V23.6364H183.207V26.2997H183.409C183.786 25.4332 184.375 24.7372 185.178 24.2116C185.987 23.6861 187.006 23.4233 188.235 23.4233C189.35 23.4233 190.327 23.6577 191.165 24.1264C192.003 24.5881 192.653 25.277 193.114 26.1932C193.576 27.1094 193.807 28.2422 193.807 29.5916V40H190.621V29.9751C190.621 28.7891 190.313 27.8622 189.695 27.1946C189.077 26.5199 188.228 26.1825 187.148 26.1825C186.41 26.1825 185.753 26.3423 185.178 26.6619C184.609 26.9815 184.158 27.4503 183.825 28.0682C183.498 28.679 183.335 29.4176 183.335 30.2841Z" fill="#252323"/>
<path d="M156.72 36.3484C155.527 34.6306 154.954 32.5788 154.954 30.4793C154.954 24.7056 159.631 19.9817 165.452 19.9817C167.504 19.9817 169.46 20.5543 171.13 21.6517C171.369 21.7949 171.655 21.7472 171.798 21.5086C171.941 21.27 171.894 20.9837 171.655 20.8406C169.794 19.6476 167.647 18.9796 165.452 18.9796C159.153 18.9796 154 24.0853 154 30.4316C154 32.722 154.668 34.9169 155.956 36.8256C156.052 36.9687 156.195 37.0165 156.338 37.0165C156.434 37.0165 156.529 36.9687 156.624 36.921C156.815 36.8733 156.863 36.587 156.72 36.3484Z" fill="#231F20"/>
<path d="M174.328 24.0853C174.089 24.2285 174.041 24.5148 174.185 24.7534C175.33 26.4712 175.902 28.4275 175.902 30.5271C175.902 36.3008 171.226 41.0247 165.405 41.0247C162.399 41.0247 159.536 39.7364 157.532 37.446C157.341 37.2551 157.054 37.2074 156.864 37.3982C156.673 37.5891 156.625 37.8754 156.816 38.0663C159.011 40.5475 162.112 41.979 165.405 41.979C171.703 41.979 176.857 36.8734 176.857 30.5271C176.857 28.2844 176.189 26.1372 174.996 24.2285C174.805 23.9899 174.519 23.9422 174.328 24.0853Z" fill="#231F20"/>
<path d="M168.888 25.0873C169.031 24.8487 168.935 24.5624 168.697 24.4193C167.695 23.8944 166.55 23.6081 165.404 23.6081C161.635 23.6081 158.533 26.7097 158.533 30.4793C158.533 34.2489 161.635 37.3504 165.404 37.3504C169.174 37.3504 172.276 34.2489 172.276 30.4793C172.276 29.2864 171.942 28.0934 171.369 27.0437C171.226 26.8051 170.939 26.7574 170.701 26.8528C170.462 26.996 170.415 27.2823 170.51 27.5208C171.035 28.4275 171.274 29.4295 171.274 30.4793C171.274 33.724 168.601 36.3961 165.357 36.3961C162.112 36.3961 159.44 33.724 159.44 30.4793C159.44 27.2345 162.112 24.5624 165.357 24.5624C166.359 24.5624 167.313 24.801 168.172 25.2782C168.458 25.4213 168.745 25.3259 168.888 25.0873Z" fill="#231F20"/>
<path d="M165.404 28.8092C165.69 28.8092 165.881 28.6184 165.881 28.3321C165.881 28.0458 165.69 27.8549 165.404 27.8549C163.972 27.8549 162.779 29.0478 162.779 30.4793C162.779 31.9108 163.972 33.1037 165.404 33.1037C166.835 33.1037 168.028 31.9108 168.028 30.4793C168.028 30.193 167.837 30.0022 167.551 30.0022C167.265 30.0022 167.074 30.193 167.074 30.4793C167.074 31.3859 166.31 32.1494 165.404 32.1494C164.497 32.1494 163.734 31.3859 163.734 30.4793C163.734 29.5727 164.497 28.8092 165.404 28.8092Z" fill="#231F20"/>
<path fill-rule="evenodd" clip-rule="evenodd" d="M173.978 13.482C174.51 13.461 174.918 13.875 174.889 14.4068C174.879 14.6053 174.869 14.7996 174.858 14.9899C174.666 18.6258 174.552 20.7789 173.458 22.891C172.883 24.0023 172.06 25.0653 170.909 26.3239C169.766 27.574 168.251 29.0678 166.261 31.0296L166.238 31.0529C165.841 31.4437 165.231 31.4678 164.875 31.1067C164.519 30.7455 164.552 30.1359 164.948 29.745C166.966 27.7553 168.44 26.3014 169.54 25.0984C170.637 23.8991 171.313 23.0007 171.761 22.1354C172.644 20.4308 172.736 18.7112 172.953 14.6689C172.956 14.6074 172.959 14.5454 172.963 14.4828C172.991 13.9511 173.446 13.503 173.978 13.482Z" fill="#252323"/>
<path fill-rule="evenodd" clip-rule="evenodd" d="M184.979 17.5872C184.98 17.9068 184.67 17.9886 184.286 17.7699C183.622 17.392 182.663 16.9847 181.142 17.3682C179.589 17.7597 177.501 18.9655 174.634 21.7923C174.453 21.9704 174.032 21.8359 173.693 21.4919C173.354 21.148 173.225 20.7249 173.406 20.5468C176.293 17.6998 178.459 16.417 180.161 15.9879C181.894 15.5509 183.189 15.9913 184.28 16.6125C184.665 16.8312 184.977 17.2676 184.979 17.5872Z" fill="#252323"/>
<path fill-rule="evenodd" clip-rule="evenodd" d="M184.697 14.4956C182.22 14.1597 180.02 14.737 178.908 15.3962C178.512 15.6312 177.971 15.4818 177.7 15.0627C177.43 14.6435 177.532 14.1133 177.928 13.8783C179.369 13.0241 181.946 12.3872 184.78 12.7715C187.651 13.1609 190.817 14.6051 193.332 17.9496C193.633 18.3493 193.573 18.8895 193.199 19.1563C192.825 19.423 192.278 19.3153 191.977 18.9156C189.812 16.0364 187.136 14.8262 184.697 14.4956Z" fill="#3AAB83"/>
<path fill-rule="evenodd" clip-rule="evenodd" d="M193.084 17.6995C193.48 18.0048 193.582 18.5531 193.31 18.9241C192.226 20.408 190.317 21.9034 188.15 22.7527C185.99 23.5996 183.411 23.8618 181.084 22.6026C180.647 22.3661 180.453 21.8354 180.652 21.417C180.85 20.9987 181.365 20.8513 181.802 21.0877C183.475 21.9928 185.478 21.8764 187.397 21.1244C189.309 20.3749 190.975 19.0513 191.877 17.8183C192.148 17.4473 192.688 17.3941 193.084 17.6995Z" fill="#3AAB83"/>
<path fill-rule="evenodd" clip-rule="evenodd" d="M177.747 10.1817C178.222 11.4749 177.972 12.7763 177.63 14.2803C177.524 14.7465 177.804 15.2665 178.255 15.4417C178.707 15.6169 179.158 15.381 179.264 14.9148L179.268 14.8996C179.59 13.4812 180.007 11.6444 179.3 9.71545C178.57 7.72663 176.768 5.90949 173.286 4.23031C172.845 4.01754 172.372 4.21007 172.229 4.66035C172.087 5.11063 172.329 5.64814 172.77 5.86091C176.054 7.44474 177.293 8.94136 177.747 10.1817Z" fill="#3AAB83"/>
<path fill-rule="evenodd" clip-rule="evenodd" d="M173.508 4.28241C173.118 3.96163 172.599 4.0104 172.348 4.39134C172.251 4.53853 172.141 4.70312 172.02 4.88327C171.209 6.09276 169.928 8.00364 169.119 10.0594C168.212 12.3629 167.725 15.2999 169.764 17.6592C170.099 18.0468 170.631 18.1075 170.951 17.7948C171.271 17.4821 171.259 16.9143 170.924 16.5268C169.704 15.1157 169.801 13.1644 170.679 10.9362C171.42 9.05398 172.596 7.29614 173.414 6.07407C173.539 5.88739 173.655 5.71321 173.761 5.553C174.011 5.17206 173.898 4.6032 173.508 4.28241Z" fill="#3AAB83"/>
</svg>
