<svg width="253" height="69" viewBox="0 0 253 69" fill="none" xmlns="http://www.w3.org/2000/svg">
<rect width="253" height="69" rx="8" fill="white"/>
<path d="M35.0511 45.2557C34.0071 45.2557 33.0838 45.0852 32.2812 44.7443C31.4858 44.3963 30.8608 43.8707 30.4062 43.1676C29.9517 42.4645 29.7244 41.5696 29.7244 40.483C29.7244 39.5881 29.8771 38.8246 30.1825 38.1925C30.4879 37.5533 30.9141 37.0312 31.4609 36.6264C32.0078 36.2216 32.6435 35.9126 33.3679 35.6996C34.0994 35.4865 34.8878 35.348 35.733 35.2841C36.6491 35.2131 37.3842 35.1278 37.9382 35.0284C38.4993 34.9219 38.9041 34.7763 39.1527 34.5916C39.4013 34.3999 39.5256 34.1477 39.5256 33.8352V33.7926C39.5256 33.3665 39.3622 33.0398 39.0355 32.8125C38.7088 32.5852 38.2898 32.4716 37.7784 32.4716C37.2173 32.4716 36.7592 32.5959 36.4041 32.8445C36.0561 33.0859 35.8466 33.4588 35.7756 33.9631H30.3636C30.4347 32.9687 30.7507 32.0526 31.3118 31.2145C31.88 30.3693 32.7074 29.6946 33.794 29.1903C34.8807 28.679 36.2372 28.4233 37.8636 28.4233C39.0355 28.4233 40.0866 28.5618 41.017 28.8388C41.9474 29.1087 42.7393 29.4886 43.3928 29.9787C44.0462 30.4616 44.5433 31.0298 44.8842 31.6832C45.2322 32.3295 45.4062 33.0327 45.4062 33.7926V45H39.9091V42.6989H39.7812C39.4545 43.3097 39.0568 43.8033 38.5881 44.1797C38.1264 44.5561 37.5973 44.8295 37.0007 45C36.4112 45.1705 35.7614 45.2557 35.0511 45.2557ZM36.9688 41.5483C37.4162 41.5483 37.8352 41.456 38.2259 41.2713C38.6236 41.0866 38.9467 40.8203 39.1953 40.4723C39.4439 40.1243 39.5682 39.7017 39.5682 39.2045V37.8409C39.4119 37.9048 39.245 37.9652 39.0675 38.022C38.897 38.0788 38.7124 38.1321 38.5135 38.1818C38.3217 38.2315 38.1158 38.2777 37.8956 38.3203C37.6825 38.3629 37.4588 38.402 37.2244 38.4375C36.7699 38.5085 36.397 38.6257 36.1058 38.7891C35.8217 38.9453 35.6087 39.1406 35.4666 39.375C35.3317 39.6023 35.2642 39.858 35.2642 40.142C35.2642 40.5966 35.424 40.9446 35.7436 41.1861C36.0632 41.4276 36.4716 41.5483 36.9688 41.5483ZM56.0996 51.4773C54.459 51.4773 53.0527 51.2429 51.8809 50.7741C50.7161 50.3125 49.8105 49.6733 49.1642 48.8565C48.525 48.0469 48.1664 47.1165 48.0882 46.0653H53.7559C53.8127 46.4134 53.9547 46.6939 54.182 46.907C54.4093 47.12 54.7005 47.2727 55.0556 47.3651C55.4178 47.4645 55.8226 47.5142 56.2701 47.5142C57.03 47.5142 57.6586 47.3295 58.1557 46.9602C58.66 46.5909 58.9121 45.9233 58.9121 44.9574V42.1875H58.7417C58.5286 42.7415 58.2019 43.2138 57.7615 43.6044C57.3212 43.9879 56.7921 44.2827 56.1742 44.4886C55.5563 44.6875 54.878 44.7869 54.1394 44.7869C52.9746 44.7869 51.9022 44.517 50.9221 43.9773C49.949 43.4375 49.1678 42.5817 48.5783 41.4098C47.9959 40.2379 47.7047 38.7074 47.7047 36.8182C47.7047 34.8437 48.0101 33.2386 48.6209 32.0028C49.2388 30.767 50.0343 29.8615 51.0073 29.2862C51.9874 28.7109 53.0172 28.4233 54.0968 28.4233C54.9064 28.4233 55.6167 28.5653 56.2275 28.8494C56.8382 29.1264 57.3496 29.4993 57.7615 29.968C58.1735 30.4297 58.486 30.9375 58.699 31.4915H58.8269V28.6364H64.7076V44.9574C64.7076 46.3423 64.3489 47.5178 63.6316 48.4837C62.9213 49.4567 61.9199 50.1989 60.6273 50.7102C59.3347 51.2216 57.8255 51.4773 56.0996 51.4773ZM56.3127 40.6108C56.8525 40.6108 57.3141 40.4616 57.6976 40.1634C58.0882 39.858 58.3865 39.4247 58.5925 38.8636C58.8056 38.2955 58.9121 37.6136 58.9121 36.8182C58.9121 36.0085 58.8056 35.3161 58.5925 34.7408C58.3865 34.1584 58.0882 33.7145 57.6976 33.4091C57.3141 33.0966 56.8525 32.9403 56.3127 32.9403C55.7729 32.9403 55.3113 33.0966 54.9277 33.4091C54.5513 33.7145 54.2601 34.1584 54.0542 34.7408C53.8553 35.3161 53.7559 36.0085 53.7559 36.8182C53.7559 37.6278 53.8553 38.3168 54.0542 38.8849C54.2601 39.446 54.5513 39.8757 54.9277 40.174C55.3113 40.4652 55.7729 40.6108 56.3127 40.6108ZM67.6985 45V28.6364H73.4087V31.7472H73.5792C73.8775 30.5966 74.3498 29.755 74.9961 29.2223C75.6495 28.6896 76.413 28.4233 77.2866 28.4233C77.5423 28.4233 77.7944 28.4446 78.043 28.4872C78.2987 28.5227 78.5437 28.576 78.7781 28.647V33.6648C78.4869 33.5653 78.1282 33.4908 77.7021 33.4411C77.2759 33.3913 76.9102 33.3665 76.6048 33.3665C76.0295 33.3665 75.511 33.4979 75.0494 33.7607C74.5948 34.0163 74.2362 34.3786 73.9734 34.8473C73.7106 35.3089 73.5792 35.8523 73.5792 36.4773V45H67.6985ZM80.7063 45V28.6364H86.587V45H80.7063ZM83.6467 26.9318C82.8512 26.9318 82.1694 26.669 81.6012 26.1435C81.033 25.6179 80.7489 24.9858 80.7489 24.2472C80.7489 23.5085 81.033 22.8764 81.6012 22.3509C82.1694 21.8253 82.8512 21.5625 83.6467 21.5625C84.4492 21.5625 85.131 21.8253 85.6921 22.3509C86.2603 22.8764 86.5444 23.5085 86.5444 24.2472C86.5444 24.9858 86.2603 25.6179 85.6921 26.1435C85.131 26.669 84.4492 26.9318 83.6467 26.9318Z" fill="#3AAB83"/>
<path d="M90.2331 51.1364V28.6364H93.3439V31.2891H93.6103C93.7949 30.9482 94.0613 30.554 94.4093 30.1065C94.7573 29.6591 95.2402 29.2685 95.8581 28.9347C96.476 28.5938 97.2928 28.4233 98.3084 28.4233C99.6294 28.4233 100.808 28.7571 101.845 29.4247C102.882 30.0923 103.695 31.0547 104.285 32.3118C104.882 33.5689 105.18 35.0817 105.18 36.8501C105.18 38.6186 104.885 40.1349 104.296 41.3991C103.706 42.6562 102.896 43.6257 101.867 44.3075C100.837 44.9822 99.6614 45.3196 98.3404 45.3196C97.3461 45.3196 96.5328 45.1527 95.9007 44.8189C95.2757 44.4851 94.7857 44.0945 94.4306 43.647C94.0755 43.1996 93.802 42.8018 93.6103 42.4538H93.4185V51.1364H90.2331ZM93.3546 36.8182C93.3546 37.9687 93.5215 38.9773 93.8553 39.8438C94.1891 40.7102 94.6721 41.3885 95.3042 41.8786C95.9363 42.3615 96.7104 42.603 97.6266 42.603C98.5783 42.603 99.3738 42.3509 100.013 41.8466C100.652 41.3352 101.135 40.6428 101.462 39.7692C101.796 38.8956 101.963 37.9119 101.963 36.8182C101.963 35.7386 101.799 34.7692 101.472 33.9098C101.153 33.0504 100.67 32.3722 100.024 31.875C99.3844 31.3778 98.5854 31.1293 97.6266 31.1293C96.7033 31.1293 95.9221 31.3672 95.2828 31.843C94.6507 32.3189 94.1713 32.983 93.8446 33.8352C93.5179 34.6875 93.3546 35.6818 93.3546 36.8182ZM108.749 45V28.6364H111.828V31.2358H111.998C112.296 30.3551 112.822 29.6626 113.575 29.1584C114.335 28.647 115.194 28.3913 116.153 28.3913C116.352 28.3913 116.586 28.3984 116.856 28.4126C117.133 28.4268 117.35 28.4446 117.506 28.4659V31.5128C117.378 31.4773 117.151 31.4382 116.824 31.3956C116.497 31.3459 116.171 31.321 115.844 31.321C115.091 31.321 114.42 31.4808 113.83 31.8004C113.248 32.1129 112.786 32.5497 112.445 33.1108C112.105 33.6648 111.934 34.2969 111.934 35.0071V45H108.749ZM126.729 45.3303C125.117 45.3303 123.728 44.9858 122.564 44.2969C121.406 43.6009 120.511 42.6243 119.879 41.3672C119.254 40.103 118.941 38.6222 118.941 36.9247C118.941 35.2486 119.254 33.7713 119.879 32.4929C120.511 31.2145 121.392 30.2166 122.521 29.4993C123.657 28.782 124.985 28.4233 126.505 28.4233C127.429 28.4233 128.324 28.576 129.19 28.8814C130.056 29.1868 130.834 29.6662 131.523 30.3196C132.212 30.973 132.755 31.8217 133.153 32.8658C133.551 33.9027 133.75 35.1634 133.75 36.6477V37.777H120.742V35.3906H130.628C130.628 34.5526 130.458 33.8104 130.117 33.1641C129.776 32.5107 129.297 31.9957 128.679 31.6193C128.068 31.2429 127.35 31.0547 126.527 31.0547C125.632 31.0547 124.85 31.2749 124.183 31.7152C123.522 32.1484 123.011 32.7166 122.649 33.4197C122.294 34.1158 122.116 34.8722 122.116 35.6889V37.5533C122.116 38.647 122.308 39.5774 122.691 40.3445C123.082 41.1115 123.625 41.6974 124.321 42.1023C125.017 42.5 125.831 42.6989 126.761 42.6989C127.365 42.6989 127.915 42.6136 128.412 42.4432C128.909 42.2656 129.339 42.0028 129.701 41.6548C130.064 41.3068 130.341 40.8771 130.532 40.3658L133.547 40.9091C133.306 41.7969 132.873 42.5746 132.248 43.2422C131.63 43.9027 130.852 44.4176 129.914 44.7869C128.984 45.1491 127.922 45.3303 126.729 45.3303ZM144.177 45.3303C142.593 45.3303 141.229 44.9716 140.086 44.2543C138.949 43.5298 138.076 42.532 137.465 41.2607C136.854 39.9893 136.549 38.5334 136.549 36.8928C136.549 35.2308 136.861 33.7642 137.486 32.4929C138.111 31.2145 138.992 30.2166 140.128 29.4993C141.265 28.782 142.604 28.4233 144.145 28.4233C145.388 28.4233 146.496 28.6541 147.469 29.1158C148.442 29.5703 149.226 30.2095 149.823 31.0334C150.427 31.8572 150.785 32.8196 150.899 33.9205H147.799C147.628 33.1534 147.238 32.4929 146.627 31.9389C146.023 31.3849 145.214 31.108 144.198 31.108C143.31 31.108 142.532 31.3423 141.865 31.8111C141.204 32.2727 140.689 32.9332 140.32 33.7926C139.951 34.6449 139.766 35.6534 139.766 36.8182C139.766 38.0114 139.947 39.0412 140.309 39.9077C140.672 40.7741 141.183 41.4453 141.844 41.9212C142.511 42.397 143.296 42.6349 144.198 42.6349C144.802 42.6349 145.349 42.5249 145.839 42.3047C146.336 42.0774 146.751 41.7543 147.085 41.3352C147.426 40.9162 147.664 40.4119 147.799 39.8224H150.899C150.785 40.8807 150.441 41.8253 149.866 42.6562C149.29 43.4872 148.52 44.1406 147.554 44.6165C146.595 45.0923 145.469 45.3303 144.177 45.3303ZM154.305 45V28.6364H157.491V45H154.305ZM155.914 26.1115C155.36 26.1115 154.884 25.9268 154.487 25.5575C154.096 25.1811 153.901 24.7337 153.901 24.2152C153.901 23.6896 154.096 23.2422 154.487 22.8729C154.884 22.4964 155.36 22.3082 155.914 22.3082C156.468 22.3082 156.94 22.4964 157.331 22.8729C157.729 23.2422 157.928 23.6896 157.928 24.2152C157.928 24.7337 157.729 25.1811 157.331 25.5575C156.94 25.9268 156.468 26.1115 155.914 26.1115ZM174.038 32.6314L171.151 33.1428C171.03 32.7734 170.839 32.4219 170.576 32.0881C170.32 31.7543 169.972 31.4808 169.532 31.2678C169.091 31.0547 168.541 30.9482 167.881 30.9482C166.979 30.9482 166.226 31.1506 165.622 31.5554C165.018 31.9531 164.716 32.468 164.716 33.1001C164.716 33.647 164.919 34.0874 165.324 34.4212C165.729 34.755 166.382 35.0284 167.284 35.2415L169.883 35.8381C171.389 36.1861 172.511 36.7223 173.25 37.4467C173.988 38.1712 174.358 39.1122 174.358 40.2699C174.358 41.25 174.074 42.1236 173.506 42.8906C172.944 43.6506 172.16 44.2472 171.151 44.6804C170.15 45.1136 168.988 45.3303 167.667 45.3303C165.835 45.3303 164.34 44.9396 163.182 44.1584C162.025 43.37 161.314 42.2514 161.052 40.8026L164.131 40.3338C164.322 41.1364 164.716 41.7436 165.313 42.1555C165.91 42.5604 166.687 42.7628 167.646 42.7628C168.69 42.7628 169.525 42.5462 170.15 42.1129C170.775 41.6726 171.087 41.1364 171.087 40.5043C171.087 39.9929 170.895 39.5632 170.512 39.2152C170.135 38.8672 169.557 38.6044 168.775 38.4268L166.006 37.8196C164.479 37.4716 163.349 36.9176 162.618 36.1577C161.893 35.3977 161.531 34.4354 161.531 33.2706C161.531 32.3047 161.801 31.4595 162.341 30.7351C162.881 30.0107 163.626 29.446 164.578 29.0412C165.53 28.6293 166.62 28.4233 167.849 28.4233C169.617 28.4233 171.009 28.8068 172.025 29.5739C173.04 30.3338 173.711 31.353 174.038 32.6314ZM177.86 45V28.6364H181.045V45H177.86ZM179.469 26.1115C178.915 26.1115 178.439 25.9268 178.041 25.5575C177.651 25.1811 177.455 24.7337 177.455 24.2152C177.455 23.6896 177.651 23.2422 178.041 22.8729C178.439 22.4964 178.915 22.3082 179.469 22.3082C180.023 22.3082 180.495 22.4964 180.886 22.8729C181.283 23.2422 181.482 23.6896 181.482 24.2152C181.482 24.7337 181.283 25.1811 180.886 25.5575C180.495 25.9268 180.023 26.1115 179.469 26.1115ZM212.335 35.2841V45H209.149V28.6364H212.207V31.2997H212.409C212.786 30.4332 213.375 29.7372 214.178 29.2116C214.987 28.6861 216.006 28.4233 217.235 28.4233C218.35 28.4233 219.327 28.6577 220.165 29.1264C221.003 29.5881 221.653 30.277 222.114 31.1932C222.576 32.1094 222.807 33.2422 222.807 34.5916V45H219.621V34.9751C219.621 33.7891 219.313 32.8622 218.695 32.1946C218.077 31.5199 217.228 31.1825 216.148 31.1825C215.41 31.1825 214.753 31.3423 214.178 31.6619C213.609 31.9815 213.158 32.4503 212.825 33.0682C212.498 33.679 212.335 34.4176 212.335 35.2841Z" fill="#252323"/>
<path d="M185.72 41.3484C184.527 39.6306 183.954 37.5788 183.954 35.4793C183.954 29.7056 188.631 24.9817 194.452 24.9817C196.504 24.9817 198.46 25.5543 200.13 26.6517C200.369 26.7949 200.655 26.7472 200.798 26.5086C200.941 26.27 200.894 25.9837 200.655 25.8406C198.794 24.6476 196.647 23.9796 194.452 23.9796C188.153 23.9796 183 29.0853 183 35.4316C183 37.722 183.668 39.9169 184.956 41.8256C185.052 41.9687 185.195 42.0165 185.338 42.0165C185.434 42.0165 185.529 41.9687 185.624 41.921C185.815 41.8733 185.863 41.587 185.72 41.3484Z" fill="#231F20"/>
<path d="M203.328 29.0853C203.089 29.2285 203.041 29.5148 203.185 29.7534C204.33 31.4712 204.902 33.4275 204.902 35.5271C204.902 41.3008 200.226 46.0247 194.405 46.0247C191.399 46.0247 188.536 44.7364 186.532 42.446C186.341 42.2551 186.054 42.2074 185.864 42.3982C185.673 42.5891 185.625 42.8754 185.816 43.0663C188.011 45.5475 191.112 46.979 194.405 46.979C200.703 46.979 205.857 41.8734 205.857 35.5271C205.857 33.2844 205.189 31.1372 203.996 29.2285C203.805 28.9899 203.519 28.9422 203.328 29.0853Z" fill="#231F20"/>
<path d="M197.888 30.0873C198.031 29.8487 197.935 29.5624 197.697 29.4193C196.695 28.8944 195.55 28.6081 194.404 28.6081C190.635 28.6081 187.533 31.7097 187.533 35.4793C187.533 39.2489 190.635 42.3504 194.404 42.3504C198.174 42.3504 201.276 39.2489 201.276 35.4793C201.276 34.2864 200.942 33.0934 200.369 32.0437C200.226 31.8051 199.939 31.7574 199.701 31.8528C199.462 31.996 199.415 32.2823 199.51 32.5208C200.035 33.4275 200.274 34.4295 200.274 35.4793C200.274 38.724 197.601 41.3961 194.357 41.3961C191.112 41.3961 188.44 38.724 188.44 35.4793C188.44 32.2345 191.112 29.5624 194.357 29.5624C195.359 29.5624 196.313 29.801 197.172 30.2782C197.458 30.4213 197.745 30.3259 197.888 30.0873Z" fill="#231F20"/>
<path d="M194.404 33.8092C194.69 33.8092 194.881 33.6184 194.881 33.3321C194.881 33.0458 194.69 32.8549 194.404 32.8549C192.972 32.8549 191.779 34.0478 191.779 35.4793C191.779 36.9108 192.972 38.1037 194.404 38.1037C195.835 38.1037 197.028 36.9108 197.028 35.4793C197.028 35.193 196.837 35.0022 196.551 35.0022C196.265 35.0022 196.074 35.193 196.074 35.4793C196.074 36.3859 195.31 37.1494 194.404 37.1494C193.497 37.1494 192.734 36.3859 192.734 35.4793C192.734 34.5727 193.497 33.8092 194.404 33.8092Z" fill="#231F20"/>
<path fill-rule="evenodd" clip-rule="evenodd" d="M202.978 18.482C203.51 18.461 203.918 18.875 203.889 19.4068C203.879 19.6053 203.869 19.7996 203.858 19.9899C203.666 23.6258 203.552 25.7789 202.458 27.891C201.883 29.0023 201.06 30.0653 199.909 31.3239C198.766 32.574 197.251 34.0678 195.261 36.0296L195.238 36.0529C194.841 36.4437 194.231 36.4678 193.875 36.1067C193.519 35.7455 193.552 35.1359 193.948 34.745C195.966 32.7553 197.44 31.3014 198.54 30.0984C199.637 28.8991 200.313 28.0007 200.761 27.1354C201.644 25.4308 201.736 23.7112 201.953 19.6689C201.956 19.6074 201.959 19.5454 201.963 19.4828C201.991 18.9511 202.446 18.503 202.978 18.482Z" fill="#252323"/>
<path fill-rule="evenodd" clip-rule="evenodd" d="M213.979 22.5872C213.98 22.9068 213.67 22.9886 213.286 22.7699C212.622 22.392 211.663 21.9847 210.142 22.3682C208.589 22.7597 206.501 23.9655 203.634 26.7923C203.453 26.9704 203.032 26.8359 202.693 26.4919C202.354 26.148 202.225 25.7249 202.406 25.5468C205.293 22.6998 207.459 21.417 209.161 20.9879C210.894 20.5509 212.189 20.9913 213.28 21.6125C213.665 21.8312 213.977 22.2676 213.979 22.5872Z" fill="#252323"/>
<path fill-rule="evenodd" clip-rule="evenodd" d="M213.697 19.4956C211.22 19.1597 209.02 19.737 207.908 20.3962C207.512 20.6312 206.971 20.4818 206.7 20.0627C206.43 19.6435 206.532 19.1133 206.928 18.8783C208.369 18.0241 210.946 17.3872 213.78 17.7715C216.651 18.1609 219.817 19.6051 222.332 22.9496C222.633 23.3493 222.573 23.8895 222.199 24.1563C221.825 24.423 221.278 24.3153 220.977 23.9156C218.812 21.0364 216.136 19.8262 213.697 19.4956Z" fill="#3AAB83"/>
<path fill-rule="evenodd" clip-rule="evenodd" d="M222.084 22.6995C222.48 23.0048 222.582 23.5531 222.31 23.9241C221.226 25.408 219.317 26.9034 217.15 27.7527C214.99 28.5996 212.411 28.8618 210.084 27.6026C209.647 27.3661 209.453 26.8354 209.652 26.417C209.85 25.9987 210.365 25.8513 210.802 26.0877C212.475 26.9928 214.478 26.8764 216.397 26.1244C218.309 25.3749 219.975 24.0513 220.877 22.8183C221.148 22.4473 221.688 22.3941 222.084 22.6995Z" fill="#3AAB83"/>
<path fill-rule="evenodd" clip-rule="evenodd" d="M206.747 15.1817C207.222 16.4749 206.972 17.7763 206.63 19.2803C206.524 19.7465 206.804 20.2665 207.255 20.4417C207.707 20.6169 208.158 20.381 208.264 19.9148L208.268 19.8996C208.59 18.4812 209.007 16.6444 208.3 14.7154C207.57 12.7266 205.768 10.9095 202.286 9.23031C201.845 9.01754 201.372 9.21007 201.229 9.66035C201.087 10.1106 201.329 10.6481 201.77 10.8609C205.054 12.4447 206.293 13.9414 206.747 15.1817Z" fill="#3AAB83"/>
<path fill-rule="evenodd" clip-rule="evenodd" d="M202.508 9.28241C202.118 8.96163 201.599 9.0104 201.348 9.39134C201.251 9.53853 201.141 9.70312 201.02 9.88327C200.209 11.0928 198.928 13.0036 198.119 15.0594C197.212 17.3629 196.725 20.2999 198.764 22.6592C199.099 23.0468 199.631 23.1075 199.951 22.7948C200.271 22.4821 200.259 21.9143 199.924 21.5268C198.704 20.1157 198.801 18.1644 199.679 15.9362C200.42 14.054 201.596 12.2961 202.414 11.0741C202.539 10.8874 202.655 10.7132 202.761 10.553C203.011 10.1721 202.898 9.6032 202.508 9.28241Z" fill="#3AAB83"/>
</svg>
